<?xml version="1.0" encoding="UTF-8"?>
<svg xmlns="http://www.w3.org/2000/svg" xmlns:xlink="http://www.w3.org/1999/xlink" width="100px" height="100px" viewBox="0 0 100 100" version="1.1">
<g id="surface1">
<path style=" stroke:none;fill-rule:nonzero;fill:rgb(100%,100%,100%);fill-opacity:1;" d="M 71.464844 40.601562 C 70.398438 40.601562 69.398438 41 68.632812 41.765625 L 65.566406 44.800781 C 64.734375 45.632812 64.332031 46.765625 64.398438 47.933594 C 64.398438 48 64.398438 48.066406 64.398438 48.132812 C 64.5 49.035156 64.898438 49.832031 65.535156 50.464844 C 65.964844 50.898438 66.464844 51.167969 67.035156 51.367188 C 67.035156 51.535156 67.066406 51.734375 67.066406 51.898438 C 67.066406 52.699219 66.765625 53.464844 66.199219 54.035156 L 66 54.234375 C 64.964844 53.898438 64.132812 53.367188 63.367188 52.601562 C 62.332031 51.601562 61.667969 50.300781 61.433594 48.898438 L 61.433594 48.699219 C 61.398438 48.699219 61.234375 48.832031 61.234375 48.832031 C 61.132812 48.933594 61.035156 49 60.933594 49.101562 L 57.867188 52.132812 C 56.300781 53.699219 56.300781 56.234375 57.867188 57.800781 C 58.632812 58.566406 59.667969 58.964844 60.699219 58.964844 C 61.734375 58.964844 62.765625 58.566406 63.535156 57.800781 L 66.601562 54.765625 C 68.167969 53.199219 68.167969 50.667969 66.601562 49.101562 C 66.167969 48.699219 65.699219 48.367188 65.132812 48.167969 C 65.132812 48 65.101562 47.800781 65.101562 47.632812 C 65.101562 46.765625 65.433594 45.933594 66.066406 45.300781 C 67.101562 45.632812 68 46.199219 68.765625 46.964844 C 69.800781 47.964844 70.464844 49.265625 70.699219 50.667969 L 70.699219 50.867188 C 70.734375 50.867188 70.898438 50.734375 70.898438 50.734375 C 71 50.632812 71.101562 50.566406 71.199219 50.464844 L 74.265625 47.433594 C 75.832031 45.867188 75.832031 43.332031 74.265625 41.765625 C 73.5 41 72.5 40.601562 71.433594 40.601562 Z M 71.464844 40.601562 "/>
<path style=" stroke:none;fill-rule:nonzero;fill:rgb(100%,100%,100%);fill-opacity:1;" d="M 69.832031 29.5 L 29.898438 29.5 C 18.535156 29.5 9.265625 38.734375 9.265625 50.066406 C 9.265625 61.398438 18.535156 70.632812 29.898438 70.632812 L 69.832031 70.632812 C 81.199219 70.632812 90.464844 61.398438 90.464844 50.066406 C 90.464844 38.734375 81.199219 29.5 69.832031 29.5 Z M 50.167969 61.734375 C 49.5 61.867188 48.765625 61.898438 48.265625 61.367188 C 48.066406 61.800781 47.632812 61.566406 47.300781 61.5 C 47.300781 61.601562 47.234375 61.667969 47.199219 61.734375 C 46.101562 61.800781 45.265625 60.667969 44.734375 59.832031 C 43.667969 59.265625 42.5 58.933594 41.398438 58.332031 C 41.332031 59.300781 41.566406 60.535156 40.632812 61.167969 C 40.601562 63.035156 43.5 61.398438 43.765625 62.800781 C 43.566406 62.800781 43.332031 62.800781 43.167969 62.933594 C 42.398438 63.667969 41.535156 62.367188 40.667969 62.933594 C 39.5 63.535156 39.367188 64 37.933594 64.132812 C 37.867188 64 37.898438 63.933594 37.933594 63.867188 C 38.332031 63.398438 38.367188 62.832031 39.066406 62.632812 C 38.332031 62.535156 37.734375 62.898438 37.132812 63.234375 C 36.332031 63.566406 36.367188 62.5 35.132812 63.300781 C 35 63.199219 35.066406 63.101562 35.132812 63 C 35.433594 62.632812 35.832031 62.566406 36.300781 62.601562 C 34.066406 61.367188 33 64.132812 31.964844 62.734375 C 31.667969 62.800781 31.535156 63.101562 31.332031 63.300781 C 31.167969 63.101562 31.300781 62.898438 31.332031 62.667969 C 31.132812 62.566406 30.867188 62.535156 30.933594 62.199219 C 30.535156 62.066406 30.265625 62.300781 29.964844 62.535156 C 29.699219 62.332031 30.132812 62.035156 30.234375 61.800781 C 30.464844 61.398438 31 61.699219 31.300781 61.433594 C 32.066406 61 33.167969 61.699219 34.066406 61.601562 C 34.765625 61.699219 35.601562 60.964844 35.265625 60.265625 C 34.535156 59.332031 34.667969 58.101562 34.632812 57 C 34.535156 56.332031 32.964844 55.535156 32.535156 54.800781 C 31.964844 54.167969 31.535156 53.433594 31.101562 52.699219 C 29.535156 49.667969 30.035156 45.734375 28.035156 42.898438 C 27.132812 43.398438 25.964844 43.167969 25.199219 42.5 C 24.765625 42.867188 24.765625 43.367188 24.734375 43.898438 C 23.734375 42.898438 23.867188 41 24.667969 39.898438 C 25 39.464844 25.398438 39.101562 25.832031 38.765625 C 25.933594 38.699219 25.964844 38.632812 25.964844 38.5 C 26.765625 34.933594 32.167969 35.632812 33.898438 38.132812 C 35.132812 39.699219 35.535156 41.734375 36.933594 43.199219 C 38.832031 45.265625 41 47.101562 42.734375 49.300781 C 44.398438 51.300781 45.566406 53.667969 46.601562 56.066406 C 47.035156 56.867188 47.035156 57.832031 47.632812 58.5 C 47.933594 58.898438 49.433594 60 49.101562 60.398438 C 49.300781 60.800781 50.699219 61.367188 50.199219 61.765625 Z M 76.464844 49.566406 L 73.398438 52.601562 C 72.601562 53.398438 71.566406 54 70.5 54.332031 L 70.433594 54.332031 C 70.433594 54.332031 70.433594 54.398438 70.433594 54.398438 C 70.066406 55.332031 69.535156 56.167969 68.832031 56.867188 L 65.765625 59.898438 C 64.433594 61.234375 62.667969 61.964844 60.765625 61.964844 C 58.867188 61.964844 57.101562 61.234375 55.765625 59.898438 C 53.035156 57.167969 53.035156 52.699219 55.765625 49.964844 L 58.832031 46.933594 C 59.667969 46.132812 60.632812 45.535156 61.734375 45.199219 L 61.800781 45.199219 C 61.800781 45.199219 61.800781 45.132812 61.800781 45.132812 C 62.167969 44.199219 62.699219 43.367188 63.398438 42.667969 L 66.464844 39.632812 C 67.800781 38.300781 69.566406 37.566406 71.464844 37.566406 C 73.367188 37.566406 75.132812 38.300781 76.464844 39.632812 C 77.800781 40.964844 78.535156 42.734375 78.535156 44.601562 C 78.535156 46.464844 77.800781 48.234375 76.464844 49.566406 Z M 76.464844 49.566406 "/>
<path style=" stroke:none;fill-rule:nonzero;fill:rgb(100%,100%,100%);fill-opacity:1;" d="M 37.734375 58.066406 C 37.464844 59.101562 37.367188 60.867188 36.035156 60.933594 C 35.933594 61.535156 36.433594 61.765625 36.933594 61.566406 C 37.398438 61.332031 37.632812 61.734375 37.800781 62.132812 C 38.535156 62.234375 39.632812 61.898438 39.667969 61.035156 C 38.566406 60.398438 38.234375 59.199219 37.765625 58.101562 Z M 37.734375 58.066406 "/>
</g>
</svg>
